HIERARCHY
ROOT hips
{
  OFFSET 0 10.6860622 2.3727825e-15
  CHANNELS 6 Xposition Yposition Zposition Yrotation Xrotation Zrotation
  JOINT leftUpperLeg
  {
    OFFSET 0.6642549969 -0.9402397400000004 0
    CHANNELS 3 Yrotation Xrotation Zrotation
    JOINT leftLowerLeg
    {
      OFFSET 0 -3.997221335632195 0
      CHANNELS 3 Yrotation Xrotation Zrotation
      JOINT leftFoot
      {
        OFFSET -0.13777839790000004 -4.6145792000000005 -0.22186036399999998
        CHANNELS 3 Yrotation Xrotation Zrotation
        JOINT leftToes
        {
          OFFSET -0.03777410834999995 -0.9130806927000008 0.85230013
          CHANNELS 3 Yrotation Xrotation Zrotation
          End Site
          {
            OFFSET -0.03777410834999995 -0.9130806927000008 0.85230013
          }
        }
      }
    }
  }
  JOINT rightUpperLeg
  {
    OFFSET -0.6642778626 -0.9402397400000004 0
    CHANNELS 3 Yrotation Xrotation Zrotation
    JOINT rightLowerLeg
    {
      OFFSET 0 -3.997221452859387 0
      CHANNELS 3 Yrotation Xrotation Zrotation
      JOINT rightFoot
      {
        OFFSET 0.1377926176 -4.6145792000000005 -0.22185782299999995
        CHANNELS 3 Yrotation Xrotation Zrotation
        JOINT rightToes
        {
          OFFSET 0.037780746850000047 -0.9130806927000008 0.85230167
          CHANNELS 3 Yrotation Xrotation Zrotation
          End Site
          {
            OFFSET 0.037780746850000047 -0.9130806927000008 0.85230167
          }
        }
      }
    }
  }
  JOINT spine
  {
    OFFSET 0 0.13988381660000015 0
    CHANNELS 3 Yrotation Xrotation Zrotation
    JOINT chest
    {
      OFFSET 0 0.6191039003973773 0
      CHANNELS 3 Yrotation Xrotation Zrotation
      JOINT upperChest
      {
        OFFSET 0 0.9855186130586943 0
        CHANNELS 3 Yrotation Xrotation Zrotation
        JOINT leftShoulder
        {
          OFFSET 0.1807663869 1.5087829790000005 0
          CHANNELS 3 Yrotation Xrotation Zrotation
          JOINT leftUpperArm
          {
            OFFSET 0.5985063006419806 0 0
            CHANNELS 3 Yrotation Xrotation Zrotation
            JOINT leftLowerArm
            {
              OFFSET 2.2993332369501065 0 0
              CHANNELS 3 Yrotation Xrotation Zrotation
              JOINT leftHand
              {
                OFFSET 2.395047042602395 0 0
                CHANNELS 3 Yrotation Xrotation Zrotation
                JOINT leftIndexProximal
                {
                  OFFSET 0.5766295810000004 0.04556643899499946 0.17265095988184
                  CHANNELS 3 Yrotation Xrotation Zrotation
                  JOINT leftIndexIntermediate
                  {
                    OFFSET 0.2957229000000008 -0.019352197700001517 -0.007932640616999987
                    CHANNELS 3 Yrotation Xrotation Zrotation
                    JOINT leftIndexDistal
                    {
                      OFFSET 0.19008243099999922 -0.012484908149998475 -0.002786250786000012
                      CHANNELS 3 Yrotation Xrotation Zrotation
                      End Site
                      {
                        OFFSET 0.19008243099999922 -0.012484908149998475 -0.002786250786000012
                      }
                    }
                  }
                }
                JOINT leftMiddleProximal
                {
                  OFFSET 0.5834975091000001 0.0524350405149987 0.02204081888183999
                  CHANNELS 3 Yrotation Xrotation Zrotation
                  JOINT leftMiddleIntermediate
                  {
                    OFFSET 0.33880573540000003 -0.019871473270000717 -0.00000971183179999946
                    CHANNELS 3 Yrotation Xrotation Zrotation
                    JOINT leftMiddleDistal
                    {
                      OFFSET 0.20676022730000088 -0.012221336379999448 0.0001471936708000235
                      CHANNELS 3 Yrotation Xrotation Zrotation
                      End Site
                      {
                        OFFSET 0.20676022730000088 -0.012221336379999448 0.0001471936708000235
                      }
                    }
                  }
                }
                JOINT leftLittleProximal
                {
                  OFFSET 0.5344154683999995 -0.012880921405001189 -0.24414037221816004
                  CHANNELS 3 Yrotation Xrotation Zrotation
                  JOINT leftLittleIntermediate
                  {
                    OFFSET 0.21758961730000093 -0.011650919939999227 0.011893592810000034
                    CHANNELS 3 Yrotation Xrotation Zrotation
                    JOINT leftLittleDistal
                    {
                      OFFSET 0.1475273964999999 -0.008152365682999818 0.006001092492999946
                      CHANNELS 3 Yrotation Xrotation Zrotation
                      End Site
                      {
                        OFFSET 0.1475273964999999 -0.008152365682999818 0.006001092492999946
                      }
                    }
                  }
                }
                JOINT leftRingProximal
                {
                  OFFSET 0.5799399463000003 0.026911854694997794 -0.12150566991816003
                  CHANNELS 3 Yrotation Xrotation Zrotation
                  JOINT leftRingIntermediate
                  {
                    OFFSET 0.26167887460000006 -0.013480186499999602 0.010996293000000053
                    CHANNELS 3 Yrotation Xrotation Zrotation
                    JOINT leftRingDistal
                    {
                      OFFSET 0.17667108799999987 -0.008990287899999228 0.0055541023999999065
                      CHANNELS 3 Yrotation Xrotation Zrotation
                      End Site
                      {
                        OFFSET 0.17667108799999987 -0.008990287899999228 0.0055541023999999065
                      }
                    }
                  }
                }
                JOINT leftThumbProximal
                {
                  OFFSET 0.11018806699999972 -0.09448718900500053 0.17047963138184
                  CHANNELS 3 Yrotation Xrotation Zrotation
                  JOINT leftThumbIntermediate
                  {
                    OFFSET 0.31062601459999983 -0.08126270900000132 0.15443142000000007
                    CHANNELS 3 Yrotation Xrotation Zrotation
                    JOINT leftThumbDistal
                    {
                      OFFSET 0.21627175790000086 -0.08833193599999878 0.018771167799999988
                      CHANNELS 3 Yrotation Xrotation Zrotation
                      End Site
                      {
                        OFFSET 0.21627175790000086 -0.08833193599999878 0.018771167799999988
                      }
                    }
                  }
                }
              }
            }
          }
        }
        JOINT neck
        {
          OFFSET 0 1.5463305265074576 0
          CHANNELS 3 Yrotation Xrotation Zrotation
          JOINT head
          {
            OFFSET 0 0.8456443600000344 0
            CHANNELS 3 Yrotation Xrotation Zrotation
            JOINT leftEye
            {
              OFFSET 0.30408573140000006 0.5104519199999995 0.1276382305
              CHANNELS 3 Yrotation Xrotation Zrotation
              End Site
              {
                OFFSET 0.30408573140000006 0.5104519199999995 0.1276382305
              }
            }
            JOINT rightEye
            {
              OFFSET -0.30409491089999996 0.5104519199999995 0.1276379445
              CHANNELS 3 Yrotation Xrotation Zrotation
              End Site
              {
                OFFSET -0.30409491089999996 0.5104519199999995 0.1276379445
              }
            }
            JOINT jaw
            {
              OFFSET -3.155239131000001e-7 -0.11984121820000082 0.60178107
              CHANNELS 3 Yrotation Xrotation Zrotation
              End Site
              {
                OFFSET -3.155239131000001e-7 -0.11984121820000082 0.60178107
              }
            }
          }
        }
        JOINT rightShoulder
        {
          OFFSET -0.1807303465 1.5087829790000005 0
          CHANNELS 3 Yrotation Xrotation Zrotation
          JOINT rightUpperArm
          {
            OFFSET -0.5985063796536958 0 0
            CHANNELS 3 Yrotation Xrotation Zrotation
            JOINT rightLowerArm
            {
              OFFSET -2.2993322059002854 0 0
              CHANNELS 3 Yrotation Xrotation Zrotation
              JOINT rightHand
              {
                OFFSET -2.395045314457259 0 0
                CHANNELS 3 Yrotation Xrotation Zrotation
                JOINT rightIndexProximal
                {
                  OFFSET -0.5764487688300002 0.0441371204405987 0.17361932004999997
                  CHANNELS 3 Yrotation Xrotation Zrotation
                  JOINT rightIndexIntermediate
                  {
                    OFFSET -0.29573011380000047 -0.01934826376999843 -0.007698921482999974
                    CHANNELS 3 Yrotation Xrotation Zrotation
                    JOINT rightIndexDistal
                    {
                      OFFSET -0.19008373999999884 -0.012503266380000655 -0.0026365778999999897
                      CHANNELS 3 Yrotation Xrotation Zrotation
                      End Site
                      {
                        OFFSET -0.19008373999999884 -0.012503266380000655 -0.0026365778999999897
                      }
                    }
                  }
                }
                JOINT rightMiddleProximal
                {
                  OFFSET -0.5834852037300005 0.05211639405060153 0.02307162440000001
                  CHANNELS 3 Yrotation Xrotation Zrotation
                  JOINT rightMiddleIntermediate
                  {
                    OFFSET -0.33880114510000003 -0.019952774050000954 0.0002455003561999819
                    CHANNELS 3 Yrotation Xrotation Zrotation
                    JOINT rightMiddleDistal
                    {
                      OFFSET -0.20675694929999955 -0.012273788999999091 0.00030209124000002766
                      CHANNELS 3 Yrotation Xrotation Zrotation
                      End Site
                      {
                        OFFSET -0.20675694929999955 -0.012273788999999091 0.00030209124000002766
                      }
                    }
                  }
                }
                JOINT rightLittleProximal
                {
                  OFFSET -0.5346811737299992 -0.011214256288399227 -0.24363941305000003
                  CHANNELS 3 Yrotation Xrotation Zrotation
                  JOINT rightLittleIntermediate
                  {
                    OFFSET -0.21757715980000092 -0.011771559690000988 0.01201554387
                    CHANNELS 3 Yrotation Xrotation Zrotation
                    JOINT rightLittleDistal
                    {
                      OFFSET -0.1475201849000004 -0.00822055339600003 0.006082065407000015
                      CHANNELS 3 Yrotation Xrotation Zrotation
                      End Site
                      {
                        OFFSET -0.1475201849000004 -0.00822055339600003 0.006082065407000015
                      }
                    }
                  }
                }
                JOINT rightRingProximal
                {
                  OFFSET -0.5800810755299999 0.027657985680600072 -0.12066365025000003
                  CHANNELS 3 Yrotation Xrotation Zrotation
                  JOINT rightRingIntermediate
                  {
                    OFFSET -0.26166445029999974 -0.013623118409999302 0.011164098990000045
                    CHANNELS 3 Yrotation Xrotation Zrotation
                    JOINT rightRingDistal
                    {
                      OFFSET -0.17666387530000027 -0.009072900100000503 0.005668185599999959
                      CHANNELS 3 Yrotation Xrotation Zrotation
                      End Site
                      {
                        OFFSET -0.17666387530000027 -0.009072900100000503 0.005668185599999959
                      }
                    }
                  }
                }
                JOINT rightThumbProximal
                {
                  OFFSET -0.10997596379000074 -0.09577489355940072 0.16989765924999997
                  CHANNELS 3 Yrotation Xrotation Zrotation
                  JOINT rightThumbIntermediate
                  {
                    OFFSET -0.31036620999999986 -0.08229339117999834 0.15440884469999996
                    CHANNELS 3 Yrotation Xrotation Zrotation
                    JOINT rightThumbDistal
                    {
                      OFFSET -0.21631306399999906 -0.08825326400000111 0.018656797720000014
                      CHANNELS 3 Yrotation Xrotation Zrotation
                      End Site
                      {
                        OFFSET -0.21631306399999906 -0.08825326400000111 0.018656797720000014
                      }
                    }
                  }
                }
              }
            }
          }
        }
      }
    }
  }
}
MOTION
Frames: 5
Frame Time: 0.03333333333333333
0.08787243480242343 -7.457048440886018 1.8670727140866221 -180 0.5499339743759396 6.734956194527568e-17 -179.36211161424282 -62.66889028486486 -144.1605780907407 171.35410317875431 76.75294950022776 -174.33837120164233 0.7213464413290163 -5.106711414639287 -3.389267214260765 0 0 0 179.39861038965878 -62.649074233046555 144.112565861249 -171.34739008145283 76.74188089242993 174.32037042167147 -0.7458929984491732 -5.118034382150175 3.385277154902444 0 0 0 -1.8005230496914077e-30 17.985160164817124 -6.424425907915196e-31 -0.22464448449845453 12.196256179689527 -0.2074931082975878 0 0 0 -20.048937822991718 -33.635778882862994 -5.614153881041011 -37.19111439956337 -7.968797139317152 -24.345363537398 -61.071950985506284 24.3637076971184 -85.06795659159805 -1.4328659049179446 -1.7235658629318007 72.38749690110943 0 0 0 0 0 0 0 0 0 0 0 0 0 0 0 0 0 0 0 0 0 0 0 0 0 0 0 0 0 0 0 0 0 0 0 0 0 0 0 0 0 0 0 0 0 -6.579401394962943 1.4469335339168206 -4.557628802390758 0.29814750513458255 -15.8266703111231 -4.24761121036195 0 0 0 0 0 0 0 0 0 18.31557889616451 -32.868194048650565 10.250062001540144 43.29363690552127 -10.008616728449226 21.180382658147852 59.24005979817247 26.454561652221628 77.79817837930365 2.5971031095759964 -2.294532515610602 -74.9329985056149 0 0 0 0 0 0 0 0 0 0 0 0 0 0 0 0 0 0 0 0 0 0 0 0 0 0 0 0 0 0 0 0 0 0 0 0 0 0 0 0 0 0 0 0 0
0.08787243480242343 -7.442416231038955 1.8734819215254113 -180 1.101600970664774 1.3492384221437916e-16 -179.3523576662343 -62.407697595072534 -144.47548109125182 171.35410317875431 76.75294950022776 -174.33837120164233 1.0157974331752344 -5.086390662875312 -3.674695773262155 0 0 0 179.38735667653714 -62.38798815514282 144.4288995095947 -171.34739008145283 76.74188089242993 174.32037042167147 -1.0401943585235345 -5.097409407239205 3.6708115826961594 0 0 0 -3.0997588613141524e-31 17.332368546901478 -4.724576496183904e-32 -0.22400542180417854 11.46742826585532 -0.20458313281204502 0 0 0 -19.885804463363307 -32.81801790565207 -6.467421281743896 -37.19111439956337 -7.968797139317152 -24.345363537398 -60.91764411635589 25.63539159055139 -84.7970346984498 -2.148211247135486 -1.8160165633313672 72.46059648843162 0 0 0 0 0 0 0 0 0 0 0 0 0 0 0 0 0 0 0 0 0 0 0 0 0 0 0 0 0 0 0 0 0 0 0 0 0 0 0 0 0 0 0 0 0 -6.525411783953378 0.9124009302298102 -4.4619164046347 0.303060049067831 -16.975509881273428 -4.218109851602647 0 0 0 0 0 0 0 0 0 18.20521149268059 -32.08824214303367 10.85669413431058 43.29363690552127 -10.008616728449226 21.180382658147852 59.00796430803297 27.29091844100366 77.40693049659144 3.1403302350040896 -2.338495952074675 -74.89983773016424 0 0 0 0 0 0 0 0 0 0 0 0 0 0 0 0 0 0 0 0 0 0 0 0 0 0 0 0 0 0 0 0 0 0 0 0 0 0 0 0 0 0 0 0 0
0.08787243480242343 -7.427784021191889 1.8798911289642 -180 1.6532149964154748 2.0251664696320231e-16 -179.34576467172403 -62.146504912732524 -144.78755230030177 171.35410317875431 76.75294950022776 -174.33837120164233 1.3101199500918979 -5.064612589757653 -3.9599921974641754 0 0 0 179.3792838207757 -62.12687792248547 144.74238243240123 -171.34739008145283 76.74188089242993 174.32037042167147 -1.334365689840433 -5.075323679034358 3.95621132408613 0 0 0 1.0805984093671653e-30 16.679667122992566 -1.9847692435674955e-31 -0.22340589253116772 10.738721864721409 -0.20168969745309018 0 0 0 -19.738570794658145 -31.998651129696828 -7.30990564622726 -37.19111439956337 -7.968797139317152 -24.345363537398 -60.63210659902232 26.758606083129234 -83.95907481114834 -2.863595243260447 -1.907533923477581 72.53479502354061 0 0 0 0 0 0 0 0 0 0 0 0 0 0 0 0 0 0 0 0 0 0 0 0 0 0 0 0 0 0 0 0 0 0 0 0 0 0 0 0 0 0 0 0 0 -6.472315372418972 0.3776942939542658 -4.36670593628875 0.3073838323063188 -18.12516434631342 -4.188504207483489 0 0 0 0 0 0 0 0 0 18.105468746350855 -31.307580796804643 11.456317257789573 43.29363690552127 -10.008616728449226 21.180382658147852 58.76769621234467 28.125604568362384 77.0089474217056 3.6834988875798254 -2.3827694587567017 -74.86709399832966 0 0 0 0 0 0 0 0 0 0 0 0 0 0 0 0 0 0 0 0 0 0 0 0 0 0 0 0 0 0 0 0 0 0 0 0 0 0 0 0 0 0 0 0 0
0.08787243480242343 -7.413151811344824 1.8863003364029893 -180 2.204754968222856 2.7013795537442323e-16 -179.34224738749816 -61.88529238515717 -145.09686068779666 171.35410317875431 76.75294950022776 -174.33837120164233 1.6042988852637223 -5.0413751969816145 -4.245143599225305 0 0 0 179.3743169176542 -61.86580398355897 145.05309831778308 -171.34739008145283 76.74188089242993 174.32037042167147 -1.6283922098541075 -5.05178077299082 4.241464767668384 0 0 0 -1.745155949082597e-30 16.027089713955966 -4.239836729998623e-31 -0.2228454598752502 10.010187677325517 -0.19881098005098932 0 0 0 -19.606799989095908 -31.178023379703905 -8.142067335152786 -37.19111439956337 -7.968797139317152 -24.345363537398 -60.32437944293677 27.880446452802296 -83.10432176709791 -3.5789675076927523 -1.9980952859709398 72.61014847665366 0 0 0 0 0 0 0 0 0 0 0 0 0 0 0 0 0 0 0 0 0 0 0 0 0 0 0 0 0 0 0 0 0 0 0 0 0 0 0 0 0 0 0 0 0 -6.42010004942693 -0.15715838089849576 -4.271979347002284 0.3111097302819783 -19.275400536233562 -4.158773667851308 0 0 0 0 0 0 0 0 0 18.01605746203615 -30.526393792617785 12.049239934070155 43.29363690552127 -10.008616728449226 21.180382658147852 58.51896722761908 28.958485304245826 76.60393405698153 4.226585439441676 -2.427344119054111 -74.8347697999536 0 0 0 0 0 0 0 0 0 0 0 0 0 0 0 0 0 0 0 0 0 0 0 0 0 0 0 0 0 0 0 0 0 0 0 0 0 0 0 0 0 0 0 0 0
0.08787243480242343 -7.39851960149776 1.892709275449507 -180 2.756191069354094 3.37796646411154e-16 -179.34172068672345 -61.62409827128278 -145.40348777223545 171.35410317875431 76.75294950022776 -174.33837120164233 1.8983194666599927 -5.016683351502858 -4.530132539292346 0 0 0 179.37236317377725 -61.604724158661654 145.36111233614523 -171.34739008145283 76.74188089242993 174.32037042167147 -1.9222571272001159 -5.026782129868054 4.526553726969611 0 0 0 1.0493239866099705e-30 15.374680116566331 -3.9283407085873634e-31 -0.22232264677620475 9.281893968670117 -0.19594598311801412 0 0 0 -19.49005873572906 -30.35651586427415 -8.964334372741584 -37.19111439956337 -7.968797139317152 -24.345363537398 -59.99361627852706 29.000264667131074 -82.23185891063696 -4.294267487161054 -2.0876814998736557 72.68658564852768 0 0 0 0 0 0 0 0 0 0 0 0 0 0 0 0 0 0 0 0 0 0 0 0 0 0 0 0 0 0 0 0 0 0 0 0 0 0 0 0 0 0 0 0 0 -6.36876225813531 -0.6921347896951393 -4.177728278555025 0.3142265515857246 -20.42598652447475 -4.128898227049734 0 0 0 0 0 0 0 0 0 17.936709782163145 -29.744898466663365 12.635752648863665 43.29363690552127 -10.008616728449226 21.180382658147852 58.26159217878564 29.789349162027463 76.1916817824873 4.769567952507534 -2.47221336656124 -74.80290571114132 0 0 0 0 0 0 0 0 0 0 0 0 0 0 0 0 0 0 0 0 0 0 0 0 0 0 0 0 0 0 0 0 0 0 0 0 0 0 0 0 0 0 0 0 0
